<svg width="23" height="17" viewBox="0 0 23 17" fill="none" xmlns="http://www.w3.org/2000/svg">
<path d="M19.4016 1.4439C17.9373 0.778409 16.3909 0.306726 14.8022 0.0410156C14.5849 0.423137 14.3896 0.817173 14.2174 1.22122C12.5284 0.976295 10.8123 0.976295 9.12327 1.22122C8.96583 0.853799 8.72968 0.38617 8.53851 0.0410156C6.94138 0.301593 5.38686 0.773442 3.91665 1.4439C1.3264 5.07935 0.159365 9.52318 0.632995 13.9474C2.33483 15.1859 4.23583 16.1308 6.25569 16.742C6.71425 16.137 7.11695 15.4923 7.45895 14.8159C6.80221 14.5742 6.16971 14.2722 5.56972 13.914L6.03079 13.5577C7.78874 14.3805 9.70903 14.8072 11.6535 14.8072C13.5979 14.8072 15.5182 14.3805 17.2762 13.5577C17.4336 13.6802 17.5798 13.8027 17.7485 13.914C17.1395 14.2702 16.4998 14.572 15.8368 14.8159C16.1898 15.4934 16.6038 16.1381 17.0738 16.742C19.0936 16.1308 20.9946 15.1859 22.6965 13.9474C23.1658 9.52188 21.9948 5.07828 19.4016 1.4439ZM7.97624 11.4645C7.69697 11.4489 7.42356 11.3788 7.17169 11.2584C6.91982 11.1379 6.69444 10.9694 6.50848 10.7626C6.32252 10.5557 6.17963 10.3145 6.08801 10.0528C5.99639 9.79116 5.95783 9.51416 5.97456 9.23772C5.95631 8.96094 5.9938 8.68334 6.08486 8.42103C6.17591 8.15873 6.31871 7.91695 6.50495 7.70976C6.69119 7.50257 6.91717 7.3341 7.16975 7.21412C7.42232 7.09415 7.69647 7.02508 7.97624 7.01091C8.25652 7.02359 8.5314 7.09167 8.7847 7.21115C9.038 7.33063 9.26459 7.49908 9.45112 7.70659C9.63766 7.91411 9.78036 8.15648 9.87083 8.41943C9.96131 8.68239 9.99772 8.96061 9.97792 9.23772C9.99946 9.78856 9.80183 10.3258 9.42751 10.7339C9.05319 11.1419 8.53209 11.3883 7.97624 11.42V11.4645ZM15.3645 11.4645C14.8015 11.4301 14.2752 11.1767 13.9002 10.7595C13.5252 10.3424 13.332 9.79532 13.3628 9.23772C13.3461 8.96127 13.3846 8.68427 13.4762 8.4226C13.5679 8.16094 13.7107 7.91975 13.8967 7.71287C14.0827 7.506 14.308 7.3375 14.5599 7.21704C14.8118 7.09658 15.0852 7.02654 15.3645 7.01091C15.6447 7.02359 15.9196 7.09167 16.1729 7.21115C16.4262 7.33063 16.6528 7.49908 16.8393 7.70659C17.0259 7.91411 17.1686 8.15648 17.2591 8.41943C17.3495 8.68239 17.3859 8.96061 17.3661 9.23772C17.3906 9.78932 17.194 10.3282 16.8191 10.7369C16.4442 11.1456 15.9214 11.3911 15.3645 11.42V11.4645Z" fill="white"/>
</svg>
