<svg width="32" height="32" viewBox="0 0 32 32" fill="none" xmlns="http://www.w3.org/2000/svg">
<path d="M13.1861 23.5049C12.6123 23.5049 12.7153 23.2916 12.5093 22.7655L10.832 17.4189L21.2487 11.1338L22.4698 11.4466L21.4547 14.1199L13.1861 23.5049Z" fill="#C8DAEA"/>
<path d="M13.2852 23.5049C13.7227 23.5049 13.9123 23.3035 14.1602 23.0734C14.5394 22.7137 19.4103 18.0386 19.4103 18.0386L16.4207 17.3193L13.6497 19.0455L13.2852 23.3611V23.5049Z" fill="#A9C9DD"/>
<path d="M13.3639 19.2777L20.4052 24.5253C21.2054 24.9663 21.7873 24.7458 21.991 23.7757L24.857 10.1348C25.1479 8.94421 24.406 8.41504 23.6349 8.76782L6.81719 15.3236C5.66789 15.794 5.68243 16.4408 6.61352 16.7201L10.9343 18.0871L20.929 11.7224C21.3945 11.4284 21.8309 11.5901 21.4818 11.9134L13.3639 19.2777Z" fill="url(#paint0_linear_598_2414)"/>
<defs>
<linearGradient id="paint0_linear_598_2414" x1="17.5816" y1="16.2431" x2="21.2728" y2="22.0885" gradientUnits="userSpaceOnUse">
<stop stop-color="#EFF7FC"/>
<stop offset="1" stop-color="white"/>
</linearGradient>
</defs>
</svg>
