<svg width="20" height="16" viewBox="0 0 20 16" fill="none" xmlns="http://www.w3.org/2000/svg">
<path d="M19.3092 1.85733C18.5985 2.17295 17.8351 2.38534 17.0338 2.48114C17.8522 1.991 18.4797 1.21495 18.7753 0.289628C18.0104 0.743378 17.1623 1.07311 16.2592 1.25134C15.5367 0.481227 14.5074 0 13.3682 0C11.1804 0 9.40696 1.77415 9.40696 3.96121C9.40696 4.27164 9.4426 4.57463 9.50944 4.86351C6.21734 4.69865 3.29878 3.12129 1.34417 0.724069C1.00404 1.30927 0.808729 1.98952 0.808729 2.71656C0.808729 4.09043 1.50755 5.30315 2.57026 6.01311C1.9212 5.99232 1.31001 5.81409 0.776053 5.51778C0.776053 5.53486 0.776053 5.55045 0.776053 5.56753C0.776053 7.48724 2.14102 9.08836 3.95379 9.45151C3.62183 9.54211 3.27131 9.59039 2.90964 9.59039C2.65492 9.59039 2.40614 9.56514 2.16478 9.51983C2.66903 11.0935 4.13202 12.2394 5.86533 12.2713C4.51002 13.334 2.80196 13.9675 0.945374 13.9675C0.626041 13.9675 0.310421 13.9489 0 13.9118C1.75336 15.0354 3.83497 15.6911 6.07252 15.6911C13.3593 15.6911 17.3427 9.65499 17.3427 4.42016C17.3427 4.24861 17.339 4.07781 17.3316 3.90774C18.1062 3.34854 18.7783 2.65121 19.3092 1.85733Z" fill="white"/>
</svg>
