<svg width="32" height="32" viewBox="0 0 32 32" fill="none" xmlns="http://www.w3.org/2000/svg">
<path d="M16.0263 3.88013C11.613 3.88013 8.0263 7.46679 8.0263 11.8801V15.7335C8.0263 16.5468 7.67963 17.7868 7.2663 18.4801L5.73296 21.0268C4.7863 22.6001 5.43963 24.3468 7.17296 24.9335C12.9196 26.8535 19.1196 26.8535 24.8663 24.9335C26.4796 24.4001 27.1863 22.4935 26.3063 21.0268L24.773 18.4801C24.373 17.7868 24.0263 16.5468 24.0263 15.7335V11.8801C24.0263 7.48013 20.4263 3.88013 16.0263 3.88013Z" stroke="#FCFCFC" stroke-width="2" stroke-miterlimit="10" stroke-linecap="round"/>
<path d="M18.4934 4.26667C18.0801 4.14667 17.6534 4.05334 17.2134 4C15.9334 3.84 14.7067 3.93334 13.5601 4.26667C13.9467 3.28 14.9067 2.58667 16.0267 2.58667C17.1467 2.58667 18.1067 3.28 18.4934 4.26667Z" stroke="#FCFCFC" stroke-width="2" stroke-miterlimit="10" stroke-linecap="round" stroke-linejoin="round"/>
<path d="M20.0259 25.4133C20.0259 27.6133 18.2259 29.4133 16.0259 29.4133C14.9325 29.4133 13.9192 28.96 13.1992 28.24C12.4792 27.52 12.0259 26.5067 12.0259 25.4133" stroke="#FCFCFC" stroke-width="2" stroke-miterlimit="10"/>
</svg>
