<svg width="32" height="32" viewBox="0 0 32 32" fill="none" xmlns="http://www.w3.org/2000/svg">
<path d="M17.3335 12H9.3335" stroke="#FCFCFC" stroke-width="2" stroke-linecap="round" stroke-linejoin="round"/>
<path d="M29.3335 14.6265V17.3733C29.3335 18.1066 28.7468 18.7066 28.0001 18.7332H25.3868C23.9468 18.7332 22.6268 17.6799 22.5068 16.2399C22.4268 15.3999 22.7468 14.6132 23.3068 14.0666C23.8001 13.5599 24.4801 13.2666 25.2268 13.2666H28.0001C28.7468 13.2933 29.3335 13.8932 29.3335 14.6265Z" stroke="#FCFCFC" stroke-width="2" stroke-linecap="round" stroke-linejoin="round"/>
<path d="M23.3065 14.0667C22.7465 14.6134 22.4265 15.4001 22.5065 16.2401C22.6265 17.6801 23.9465 18.7334 25.3865 18.7334H27.9998V20.6667C27.9998 24.6667 25.3332 27.3334 21.3332 27.3334H9.33317C5.33317 27.3334 2.6665 24.6667 2.6665 20.6667V11.3334C2.6665 7.70675 4.85317 5.17341 8.25317 4.74674C8.59984 4.69341 8.95984 4.66675 9.33317 4.66675H21.3332C21.6798 4.66675 22.0132 4.68007 22.3332 4.7334C25.7732 5.1334 27.9998 7.68008 27.9998 11.3334V13.2668H25.2265C24.4798 13.2668 23.7998 13.5601 23.3065 14.0667Z" stroke="#FCFCFC" stroke-width="2" stroke-linecap="round" stroke-linejoin="round"/>
</svg>
