<svg width="16" height="23" viewBox="0 0 16 23" fill="none" xmlns="http://www.w3.org/2000/svg">
<path d="M7.00015 14.934C5.11608 14.6786 3.3993 13.7172 2.197 12.2443C0.994693 10.7714 0.396578 8.8969 0.523608 6.99985C0.650637 5.10279 1.49333 3.32475 2.88128 2.0253C4.26922 0.72585 6.09885 0.00195448 8.00015 3.48914e-06C9.90378 -0.00183162 11.7369 0.720277 13.1278 2.01993C14.5188 3.31959 15.3634 5.09953 15.4906 6.99891C15.6178 8.89829 15.018 10.775 13.8127 12.2485C12.6075 13.722 10.887 14.682 9.00015 14.934V17H14.0002V19H9.00015V23H7.00015V19H2.00015V17H7.00015V14.934ZM8.00015 13C9.45884 13 10.8578 12.4205 11.8892 11.3891C12.9207 10.3576 13.5002 8.95869 13.5002 7.5C13.5002 6.04131 12.9207 4.64237 11.8892 3.61092C10.8578 2.57947 9.45884 2 8.00015 2C6.54146 2 5.14251 2.57947 4.11106 3.61092C3.07961 4.64237 2.50015 6.04131 2.50015 7.5C2.50015 8.95869 3.07961 10.3576 4.11106 11.3891C5.14251 12.4205 6.54146 13 8.00015 13Z" fill="#FCFCFC"/>
</svg>
