<svg width="18" height="18" viewBox="0 0 18 18" fill="none" xmlns="http://www.w3.org/2000/svg">
<path d="M11.4158 5.24559L14.7647 1.89474H10.421V0H18V7.57896H16.1053V3.23432L12.7544 6.58517C13.8475 8.01808 14.3553 9.81286 14.1749 11.6061C13.9944 13.3993 13.1393 15.0569 11.7826 16.2433C10.4259 17.4297 8.66907 18.0563 6.86781 17.996C5.06655 17.9358 3.35549 17.1933 2.08109 15.9189C0.806696 14.6445 0.0642077 12.9335 0.00397311 11.1322C-0.0562615 9.33093 0.570258 7.57409 1.75667 6.2174C2.94308 4.86072 4.60072 4.00558 6.39393 3.82514C8.18714 3.64471 9.98192 4.15246 11.4148 5.24559H11.4158ZM7.10524 16.1053C8.48716 16.1053 9.81248 15.5563 10.7896 14.5792C11.7668 13.602 12.3158 12.2767 12.3158 10.8948C12.3158 9.51284 11.7668 8.18752 10.7896 7.21035C9.81248 6.23319 8.48716 5.68422 7.10524 5.68422C5.72332 5.68422 4.398 6.23319 3.42084 7.21035C2.44367 8.18752 1.89471 9.51284 1.89471 10.8948C1.89471 12.2767 2.44367 13.602 3.42084 14.5792C4.398 15.5563 5.72332 16.1053 7.10524 16.1053Z" fill="#FCFCFC"/>
</svg>
