<svg width="100" height="21" viewBox="0 0 100 21" fill="none" xmlns="http://www.w3.org/2000/svg">
<g clip-path="url(#clip0_598_2428)">
<path d="M17.6199 6.41544C17.1892 6.14905 16.6291 6.14905 16.1552 6.41544L12.7949 8.45769L10.5116 9.78961L7.15137 11.8319C6.72059 12.0983 6.16052 12.0983 5.68663 11.8319L3.01564 10.2336C2.58484 9.96726 2.28327 9.47888 2.28327 8.94607V5.79387C2.28327 5.2611 2.54175 4.77273 3.01564 4.50634L5.64356 2.95243C6.07436 2.68604 6.63438 2.68604 7.1083 2.95243L9.73621 4.50634C10.167 4.77273 10.4686 5.2611 10.4686 5.79387V7.83615L12.7518 6.45983V4.41755C12.7518 3.88478 12.4934 3.39641 12.0195 3.13002L7.15137 0.199789C6.72059 -0.0665963 6.16052 -0.0665963 5.68663 0.199789L0.732373 3.13002C0.258484 3.39641 0 3.88478 0 4.41755V10.3224C0 10.8552 0.258484 11.3435 0.732373 11.6099L5.68663 14.5401C6.11744 14.8066 6.67752 14.8066 7.15137 14.5401L10.5116 12.5423L12.7949 11.166L16.1552 9.16808C16.586 8.9017 17.1461 8.9017 17.6199 9.16808L20.2478 10.722C20.6787 10.9884 20.9803 11.4768 20.9803 12.0095V15.1617C20.9803 15.6945 20.7218 16.1829 20.2478 16.4492L17.6199 18.0476C17.1892 18.314 16.6291 18.314 16.1552 18.0476L13.5273 16.4937C13.0965 16.2273 12.7949 15.7389 12.7949 15.2061V13.1639L10.5116 14.5401V16.5825C10.5116 17.1152 10.7701 17.6036 11.2441 17.87L16.1983 20.8002C16.6291 21.0666 17.1892 21.0666 17.663 20.8002L22.6173 17.87C23.0481 17.6036 23.3497 17.1152 23.3497 16.5825V10.6776C23.3497 10.1448 23.0912 9.65646 22.6173 9.39009L17.6199 6.41544Z" fill="#5FA8FF"/>
<path d="M32.4469 19.1119V14.2097C32.9723 14.8791 33.9257 15.2531 35.0348 15.2531C37.8562 15.2531 39.7631 13.2253 39.7631 10.1344C39.7631 7.04344 38.0119 5.01562 35.2683 5.01562C34.0035 5.01562 33.0306 5.48813 32.4469 6.25594V5.17313H29.7422V19.1119H32.4469ZM34.704 12.8906C33.2447 12.8906 32.2912 11.7881 32.2912 10.1344C32.2912 8.46094 33.2447 7.35844 34.704 7.35844C36.1244 7.35844 37.0974 8.46094 37.0974 10.1344C37.0974 11.7881 36.1244 12.8906 34.704 12.8906Z" fill="#FCFCFC"/>
<path d="M45.9024 15.2531C48.9184 15.2531 51.0783 13.0875 51.0783 10.1344C51.0783 7.18125 48.9184 5.01562 45.9024 5.01562C42.8864 5.01562 40.7266 7.18125 40.7266 10.1344C40.7266 13.0875 42.8864 15.2531 45.9024 15.2531ZM45.9024 12.8906C44.443 12.8906 43.4507 11.7684 43.4507 10.1344C43.4507 8.48063 44.443 7.35844 45.9024 7.35844C47.3618 7.35844 48.3541 8.48063 48.3541 10.1344C48.3541 11.7684 47.3618 12.8906 45.9024 12.8906Z" fill="#FCFCFC"/>
<path d="M55.4234 15.0964V0.862305H52.7188V15.0964H55.4234Z" fill="#FCFCFC"/>
<path d="M63.5445 5.17285L61.5014 11.5713L59.4388 5.17285H56.6758L60.2366 15.0166L58.7968 19.1116H61.3847L62.7662 15.056L66.327 5.17285H63.5445Z" fill="#FCFCFC"/>
<path d="M73.9295 6.1575C73.3844 5.46844 72.4119 5.01562 71.225 5.01562C68.3642 5.01562 66.6328 7.04344 66.6328 10.1344C66.6328 13.2253 68.3642 15.2531 71.2635 15.2531C72.4119 15.2531 73.4426 14.82 73.9492 14.0916V15.3909C73.9492 16.3162 73.3459 16.9659 72.5282 16.9659H68.0139V19.1119H72.9563C75.1746 19.1119 76.6537 17.7534 76.6537 15.6862V5.17313H73.9295V6.1575ZM71.6916 12.8906C70.2518 12.8906 69.2982 11.8078 69.2982 10.1344C69.2982 8.46094 70.2518 7.35844 71.6916 7.35844C73.1511 7.35844 74.1047 8.46094 74.1047 10.1344C74.1047 11.8078 73.1511 12.8906 71.6916 12.8906Z" fill="#FCFCFC"/>
<path d="M83.4766 15.2531C86.4929 15.2531 88.6524 13.0875 88.6524 10.1344C88.6524 7.18125 86.4929 5.01562 83.4766 5.01562C80.4609 5.01562 78.3008 7.18125 78.3008 10.1344C78.3008 13.0875 80.4609 15.2531 83.4766 15.2531ZM83.4766 12.8906C82.0171 12.8906 81.025 11.7684 81.025 10.1344C81.025 8.48063 82.0171 7.35844 83.4766 7.35844C84.9361 7.35844 85.9282 8.48063 85.9282 10.1344C85.9282 11.7684 84.9361 12.8906 83.4766 12.8906Z" fill="#FCFCFC"/>
<path d="M92.8492 15.0956V9.66187C92.8492 8.38219 93.6858 7.45687 94.8727 7.45687C96.0008 7.45687 96.7596 8.32312 96.7596 9.52406V15.0956H99.4838V8.91375C99.4838 6.63 98.044 5.01562 95.8257 5.01562C94.4832 5.01562 93.3936 5.58656 92.8492 6.55125V5.17313H90.125V15.0956H92.8492Z" fill="#FCFCFC"/>
</g>
<defs>
<clipPath id="clip0_598_2428">
<rect width="100" height="21" fill="white"/>
</clipPath>
</defs>
</svg>
